<?xml version="1.0" standalone="no"?><!DOCTYPE svg PUBLIC "-//W3C//DTD SVG 1.1//EN" "http://www.w3.org/Graphics/SVG/1.1/DTD/svg11.dtd"><svg t="1655971910411" class="icon" viewBox="0 0 1024 1024" version="1.1" xmlns="http://www.w3.org/2000/svg" p-id="8307" xmlns:xlink="http://www.w3.org/1999/xlink" width="90" height="90"><defs><style type="text/css">@font-face { font-family: feedback-iconfont; src: url("//at.alicdn.com/t/font_1031158_u69w8yhxdu.woff2?t=1630033759944") format("woff2"), url("//at.alicdn.com/t/font_1031158_u69w8yhxdu.woff?t=1630033759944") format("woff"), url("//at.alicdn.com/t/font_1031158_u69w8yhxdu.ttf?t=1630033759944") format("truetype"); }
</style></defs><path d="M546.7 818.9l-6.1-2.4C344 738.9 321.3 637.6 321.3 568.1V302.6l17.5 0.6c136.6 4.7 194.8-58.2 195.3-58.8l12.5-14 34.8 6.8c0.5 0.5 49.8 18 174.9 18l19.4 34.7c4.7 0-26.3 13.4-21.3 13.2l17.6-0.6V568c0 69.5-22.7 170.9-219.3 248.4l-6 2.5z" fill="#25B195" p-id="8308"></path><path d="M511 880.1l-7.7-3c-248.7-97-277.5-223.8-277.5-310.7v-332l22.2 0.8c172.9 5.9 246.5-72.8 247.2-73.6l15.9-17.5 15.8 17.5c0.6 0.6 70.3 73.9 228.7 73.9 6 0 12.2-0.1 18.4-0.3l22.2-0.8v332c0 86.9-28.8 213.7-277.5 310.7l-7.7 3zM268.8 278.8v287.6c0 46.7 0 170.2 242.3 267.3 242.3-97.1 242.3-220.5 242.3-267.3V278.8c-134.2-0.5-211.4-48.7-242.4-73.6-30.9 24.8-108.1 73-242.2 73.6z m49.9 251.6" fill="#595857" p-id="8309"></path><path d="M517.4 646.6L385 509.8l26.7 8.2 94.1 35.3c31.4-37.9 80.3-104.9 176.4-164.7l23.5-11.8c-88.2 82.3-165.4 210.5-188.3 269.8z m167.3-149.4" fill="#595857" p-id="8310"></path></svg>